<svg xmlns="http://www.w3.org/2000/svg" viewBox="0 0 200 200" width="200" height="200">
  <rect width="200" height="200" fill="#fff"/>
  <rect x="20" y="20" width="40" height="40" fill="#2563eb"/>
  <rect x="140" y="20" width="40" height="40" fill="#2563eb"/>
  <rect x="20" y="140" width="40" height="40" fill="#2563eb"/>
  <rect x="70" y="20" width="10" height="10" fill="#2563eb"/>
  <rect x="90" y="20" width="10" height="10" fill="#2563eb"/>
  <rect x="110" y="20" width="10" height="10" fill="#2563eb"/>
  <rect x="70" y="40" width="10" height="10" fill="#2563eb"/>
  <rect x="100" y="40" width="10" height="10" fill="#2563eb"/>
  <rect x="120" y="40" width="10" height="10" fill="#2563eb"/>
  <rect x="70" y="60" width="10" height="10" fill="#2563eb"/>
  <rect x="90" y="60" width="10" height="10" fill="#2563eb"/>
  <rect x="110" y="60" width="10" height="10" fill="#2563eb"/>
  <rect x="20" y="70" width="10" height="10" fill="#2563eb"/>
  <rect x="40" y="70" width="10" height="10" fill="#2563eb"/>
  <rect x="20" y="90" width="10" height="10" fill="#2563eb"/>
  <rect x="50" y="90" width="10" height="10" fill="#2563eb"/>
  <rect x="20" y="110" width="10" height="10" fill="#2563eb"/>
  <rect x="40" y="110" width="10" height="10" fill="#2563eb"/>
  <rect x="70" y="70" width="10" height="10" fill="#2563eb"/>
  <rect x="90" y="70" width="10" height="10" fill="#2563eb"/>
  <rect x="110" y="70" width="10" height="10" fill="#2563eb"/>
  <rect x="130" y="70" width="10" height="10" fill="#2563eb"/>
  <rect x="70" y="90" width="10" height="10" fill="#2563eb"/>
  <rect x="100" y="90" width="10" height="10" fill="#2563eb"/>
  <rect x="120" y="90" width="10" height="10" fill="#2563eb"/>
  <rect x="140" y="90" width="10" height="10" fill="#2563eb"/>
  <rect x="70" y="110" width="10" height="10" fill="#2563eb"/>
  <rect x="90" y="110" width="10" height="10" fill="#2563eb"/>
  <rect x="110" y="110" width="10" height="10" fill="#2563eb"/>
  <rect x="130" y="110" width="10" height="10" fill="#2563eb"/>
  <rect x="70" y="140" width="10" height="10" fill="#2563eb"/>
  <rect x="90" y="140" width="10" height="10" fill="#2563eb"/>
  <rect x="110" y="140" width="10" height="10" fill="#2563eb"/>
  <rect x="130" y="140" width="10" height="10" fill="#2563eb"/>
  <rect x="70" y="160" width="10" height="10" fill="#2563eb"/>
  <rect x="100" y="160" width="10" height="10" fill="#2563eb"/>
  <rect x="120" y="160" width="10" height="10" fill="#2563eb"/>
  <rect x="140" y="160" width="10" height="10" fill="#2563eb"/>
  <rect x="160" y="160" width="10" height="10" fill="#2563eb"/>
  <rect x="70" y="180" width="10" height="10" fill="#2563eb"/>
  <rect x="90" y="180" width="10" height="10" fill="#2563eb"/>
  <rect x="110" y="180" width="10" height="10" fill="#2563eb"/>
  <rect x="150" y="180" width="10" height="10" fill="#2563eb"/>
  <rect x="170" y="180" width="10" height="10" fill="#2563eb"/>
  <rect x="140" y="70" width="10" height="10" fill="#2563eb"/>
  <rect x="160" y="70" width="10" height="10" fill="#2563eb"/>
  <rect x="180" y="70" width="10" height="10" fill="#2563eb"/>
  <rect x="140" y="110" width="10" height="10" fill="#2563eb"/>
  <rect x="160" y="110" width="10" height="10" fill="#2563eb"/>
  <rect x="180" y="110" width="10" height="10" fill="#2563eb"/>
  <rect x="140" y="130" width="10" height="10" fill="#2563eb"/>
  <rect x="160" y="130" width="10" height="10" fill="#2563eb"/>
  <rect x="180" y="130" width="10" height="10" fill="#2563eb"/>
  <rect x="150" y="150" width="20" height="20" fill="#2563eb"/>
  <rect x="180" y="150" width="10" height="10" fill="#2563eb"/>
  <rect x="30" y="30" width="20" height="20" fill="#fff"/>
  <rect x="150" y="30" width="20" height="20" fill="#fff"/>
  <rect x="30" y="150" width="20" height="20" fill="#fff"/>
</svg>